<svg width="13" height="13" viewBox="0 0 13 13" fill="none" xmlns="http://www.w3.org/2000/svg">
<path d="M6.5 0L7.87345 1.82247L10.0142 1.03185L10.1843 3.30755L12.4126 3.7998L11.3254 5.80622L12.9338 7.42505L10.9345 8.52515L11.4124 10.7566L9.13562 10.6011L8.33126 12.7367L6.5 11.375L4.66874 12.7367L3.86438 10.6011L1.58763 10.7566L2.06554 8.52515L0.0661607 7.42505L1.67462 5.80622L0.587392 3.7998L2.81572 3.30755L2.98583 1.03185L5.12655 1.82247L6.5 0Z" fill="#557FE6"/>
<line x1="0.5" y1="-0.5" x2="2.36228" y2="-0.5" transform="matrix(0.698739 0.715377 -0.698739 0.715377 4 6.02344)" stroke="white" stroke-linecap="round"/>
<line x1="0.5" y1="-0.5" x2="3.79343" y2="-0.5" transform="matrix(0.698739 -0.715377 0.698739 0.715377 6 8.07129)" stroke="white" stroke-linecap="round"/>
</svg>
