<svg width="24" height="24" viewBox="0 0 24 24" fill="none" xmlns="http://www.w3.org/2000/svg">
<path d="M23.95 23.1479V9.39795C23.9501 9.0698 23.8722 8.74645 23.7226 8.45435C23.5731 8.16224 23.3563 7.90983 23.09 7.71802L12.58 0.238037C12.4069 0.108215 12.1964 0.0380859 11.98 0.0380859C11.7637 0.0380859 11.5531 0.108215 11.38 0.238037L0.90004 7.71802C0.633791 7.90983 0.416961 8.16224 0.267433 8.45435C0.117905 8.74645 0.0399636 9.0698 0.0400391 9.39795V23.1479C0.0400391 23.3309 0.112736 23.5066 0.242136 23.636C0.371536 23.7654 0.54704 23.8381 0.73004 23.8381H7.57004C7.66065 23.8381 7.75038 23.8201 7.83409 23.7854C7.91781 23.7507 7.99387 23.7001 8.05794 23.636C8.12202 23.5719 8.17284 23.4958 8.20752 23.4121C8.24219 23.3284 8.26004 23.2386 8.26004 23.1479V12.908C8.26227 12.7361 8.32952 12.5716 8.44827 12.4473C8.56701 12.323 8.72843 12.2481 8.90004 12.238H15.05C15.233 12.238 15.4085 12.3108 15.5379 12.4402C15.6673 12.5696 15.74 12.745 15.74 12.928V23.168C15.7387 23.2581 15.7553 23.3477 15.7889 23.4314C15.8225 23.5151 15.8724 23.5911 15.9356 23.6553C15.9989 23.7195 16.0743 23.7706 16.1575 23.8054C16.2406 23.8402 16.3299 23.8582 16.42 23.8582H23.26C23.3524 23.8582 23.4437 23.8396 23.5288 23.8037C23.6138 23.7678 23.6908 23.7151 23.7552 23.6489C23.8195 23.5827 23.8699 23.5042 23.9034 23.4182C23.9368 23.3322 23.9527 23.2402 23.95 23.1479V23.1479Z" fill="#D2D7DA"/>
</svg>
