<svg width="24" height="24" viewBox="0 0 24 24" fill="none" xmlns="http://www.w3.org/2000/svg">
<path d="M23.61 21.6982C23.3535 19.2831 22.3702 17.0026 20.7901 15.1582C19.2099 13.3138 17.1072 11.9924 14.76 11.3684C15.9276 10.7061 16.8431 9.67572 17.3639 8.43848C17.8846 7.20124 17.9813 5.82649 17.6388 4.52856C17.2963 3.23064 16.5338 2.08262 15.4704 1.26343C14.407 0.444233 13.1024 0 11.76 0C10.4176 0 9.11302 0.444233 8.04961 1.26343C6.98619 2.08262 6.22377 3.23064 5.88126 4.52856C5.53874 5.82649 5.6354 7.20124 6.15614 8.43848C6.67689 9.67572 7.59244 10.7061 8.76001 11.3684C6.44459 12.0139 4.37639 13.3399 2.82341 15.1746C1.27043 17.0093 0.304229 19.268 0.0500031 21.6582C0.0500031 21.8482 0.05 22.0483 0 22.2383C0.00263167 22.4593 0.092296 22.6706 0.249542 22.8259C0.406788 22.9813 0.618952 23.0684 0.840012 23.0684H22.84C22.9498 23.0697 23.0588 23.0492 23.1607 23.0081C23.2626 22.9669 23.3552 22.9061 23.4334 22.8289C23.5115 22.7517 23.5735 22.6597 23.6159 22.5583C23.6582 22.457 23.68 22.3481 23.68 22.2383C23.65 22.0883 23.63 21.8882 23.61 21.6982Z" fill="#353C49"/>
</svg>
