<svg width="22" height="22" viewBox="0 0 22 22" fill="none" xmlns="http://www.w3.org/2000/svg">
<path d="M19.381 9.775C19.381 11.4641 22 12.75 22 17C18.8572 17 14.5188 17 10.9999 17C7.48101 17 3.66668 17 1.18026e-10 17C-2.25419e-05 12.75 2.61907 11.4641 2.61907 9.775C2.61907 5.08058 5.50336 0 10.9999 0C16.4965 0 19.381 5.08058 19.381 9.775Z" fill="#ADADAD"/>
<path d="M15 18C15 20.2091 13.2091 22 11 22C8.79086 22 7 20.2091 7 18C7 18 8.79086 18 11 18C13.2091 18 15 18 15 18Z" fill="#ADADAD"/>
</svg>
